<svg width="677" height="424" viewBox="0 0 677 424" fill="none" xmlns="http://www.w3.org/2000/svg">
<path d="M317.35 338.8C329.45 338.8 338.8 348.15 338.8 359.7V414.15C338.8 419.1 334.4 423.5 329.45 423.5H317.35C305.8 423.5 296.45 413.6 296.45 402.05V348.7C296.45 343.2 292.05 338.8 286 338.8H275C263.45 338.8 254.1 328.9 254.1 317.35V275C254.1 286.55 244.75 296.45 232.65 296.45H52.8C46.75 296.45 42.35 300.85 42.35 306.35V402.05C42.35 413.6 33 423.5 21.45 423.5H9.35C4.4 423.5 1.55717e-06 419.1 1.55717e-06 414.15V317.35C1.55717e-06 305.8 9.35 296.45 21.45 296.45H32.45C37.95 296.45 42.35 291.5 42.35 286V190.3C42.35 178.75 51.7 169.4 63.8 169.4H74.8C80.3 169.4 84.7 164.45 84.7 158.95V63.25C84.7 51.7 94.05 42.35 106.15 42.35H117.15C122.65 42.35 127.05 37.95 127.05 31.9V20.9C127.05 9.34999 136.4 -2.22921e-05 147.95 -2.22921e-05H190.3C202.4 -2.22921e-05 211.75 9.34999 211.75 20.9V74.25C211.75 80.3 216.15 84.7 221.65 84.7H232.65C244.75 84.7 254.1 94.05 254.1 105.6V201.3C254.1 206.8 258.5 211.75 264 211.75H275C287.1 211.75 296.45 221.1 296.45 232.65V328.35C296.45 333.85 300.85 338.8 306.35 338.8H317.35ZM244.75 254.1C249.7 254.1 254.1 249.7 254.1 244.75V221.65C254.1 216.15 249.7 211.75 243.65 211.75H232.65C221.1 211.75 211.75 201.85 211.75 190.3V94.6C211.75 89.1 207.35 84.7 201.85 84.7H190.3C178.75 84.7 169.4 75.35 169.4 63.25V51.7C169.4 46.2 165 42.35 160.05 42.35H136.95C131.45 42.35 127.05 46.75 127.05 52.25V147.95C127.05 159.5 117.7 169.4 106.15 169.4H94.6C89.1 169.4 84.7 173.8 84.7 179.3V244.75C84.7 249.7 89.1 254.1 94.05 254.1H244.75ZM443.459 423.5C431.909 423.5 422.559 414.15 422.559 402.6V391.6C422.559 385.55 418.159 381.15 412.109 381.15H401.109C389.559 381.15 380.209 371.8 380.209 360.25V317.9C380.209 306.35 389.559 296.45 401.109 296.45H412.109C418.159 296.45 422.559 292.05 422.559 286.55V275.55C422.559 264 431.909 254.65 443.459 254.65H612.859C624.409 254.65 633.759 264 633.759 275.55V179.85C633.759 174.35 629.359 169.95 623.859 169.95H432.459C426.959 169.95 422.559 174.35 422.559 179.85V190.85C422.559 202.95 413.209 212.3 401.109 212.3H389.559C384.609 212.3 380.209 207.9 380.209 202.95V190.85C380.209 179.3 389.559 169.95 401.109 169.95H412.109C418.159 169.95 422.559 165.55 422.559 160.05V149.05C422.559 136.95 431.909 127.6 443.459 127.6H612.859C624.409 127.6 633.759 136.95 633.759 149.05V160.05C633.759 165.55 638.159 169.95 643.659 169.95H654.659C666.759 169.95 676.109 179.3 676.109 190.85V317.9C676.109 329.45 666.759 338.8 654.659 338.8H643.659C638.159 338.8 633.759 343.75 633.759 349.25V402.6C633.759 414.15 624.409 423.5 612.859 423.5H443.459ZM432.459 381.15H582.059C587.559 381.15 591.409 377.3 591.409 371.8V360.25C591.409 348.7 600.759 338.8 612.859 338.8H623.859C629.359 338.8 633.759 334.4 633.759 328.9V305.8C633.759 300.85 629.909 296.45 624.409 296.45H432.459C426.959 296.45 422.559 301.4 422.559 306.9V371.25C422.559 376.75 426.959 381.15 432.459 381.15Z" fill="url(#paint0_linear_31_30)"/>
<defs>
<linearGradient id="paint0_linear_31_30" x1="337" y1="25.5" x2="337" y2="413.5" gradientUnits="userSpaceOnUse">
<stop/>
<stop offset="1" stop-color="#292929"/>
</linearGradient>
</defs>
</svg>
