<svg width="431" height="270" viewBox="0 0 431 270" fill="none" xmlns="http://www.w3.org/2000/svg">
<path d="M201.95 215.6C209.65 215.6 215.6 221.55 215.6 228.9V263.55C215.6 266.7 212.8 269.5 209.65 269.5H201.95C194.6 269.5 188.65 263.2 188.65 255.85V221.9C188.65 218.4 185.85 215.6 182 215.6H175C167.65 215.6 161.7 209.3 161.7 201.95V175C161.7 182.35 155.75 188.65 148.05 188.65H33.6C29.75 188.65 26.95 191.45 26.95 194.95V255.85C26.95 263.2 21 269.5 13.65 269.5H5.95C2.8 269.5 9.90927e-07 266.7 9.90927e-07 263.55V201.95C9.90927e-07 194.6 5.95 188.65 13.65 188.65H20.65C24.15 188.65 26.95 185.5 26.95 182V121.1C26.95 113.75 32.9 107.8 40.6 107.8H47.6C51.1 107.8 53.9 104.65 53.9 101.15V40.25C53.9 32.9 59.85 26.95 67.55 26.95H74.55C78.05 26.95 80.85 24.15 80.85 20.3V13.3C80.85 5.94999 86.8 -1.41859e-05 94.15 -1.41859e-05H121.1C128.8 -1.41859e-05 134.75 5.94999 134.75 13.3V47.25C134.75 51.1 137.55 53.9 141.05 53.9H148.05C155.75 53.9 161.7 59.85 161.7 67.2V128.1C161.7 131.6 164.5 134.75 168 134.75H175C182.7 134.75 188.65 140.7 188.65 148.05V208.95C188.65 212.45 191.45 215.6 194.95 215.6H201.95ZM155.75 161.7C158.9 161.7 161.7 158.9 161.7 155.75V141.05C161.7 137.55 158.9 134.75 155.05 134.75H148.05C140.7 134.75 134.75 128.45 134.75 121.1V60.2C134.75 56.7 131.95 53.9 128.45 53.9H121.1C113.75 53.9 107.8 47.95 107.8 40.25V32.9C107.8 29.4 105 26.95 101.85 26.95H87.15C83.65 26.95 80.85 29.75 80.85 33.25V94.15C80.85 101.5 74.9 107.8 67.55 107.8H60.2C56.7 107.8 53.9 110.6 53.9 114.1V155.75C53.9 158.9 56.7 161.7 59.85 161.7H155.75ZM282.201 269.5C274.851 269.5 268.901 263.55 268.901 256.2V249.2C268.901 245.35 266.101 242.55 262.251 242.55H255.251C247.901 242.55 241.951 236.6 241.951 229.25V202.3C241.951 194.95 247.901 188.65 255.251 188.65H262.251C266.101 188.65 268.901 185.85 268.901 182.35V175.35C268.901 168 274.851 162.05 282.201 162.05H390.001C397.351 162.05 403.301 168 403.301 175.35V114.45C403.301 110.95 400.501 108.15 397.001 108.15H275.201C271.701 108.15 268.901 110.95 268.901 114.45V121.45C268.901 129.15 262.951 135.1 255.251 135.1H247.901C244.751 135.1 241.951 132.3 241.951 129.15V121.45C241.951 114.1 247.901 108.15 255.251 108.15H262.251C266.101 108.15 268.901 105.35 268.901 101.85V94.85C268.901 87.15 274.851 81.2 282.201 81.2H390.001C397.351 81.2 403.301 87.15 403.301 94.85V101.85C403.301 105.35 406.101 108.15 409.601 108.15H416.601C424.301 108.15 430.251 114.1 430.251 121.45V202.3C430.251 209.65 424.301 215.6 416.601 215.6H409.601C406.101 215.6 403.301 218.75 403.301 222.25V256.2C403.301 263.55 397.351 269.5 390.001 269.5H282.201ZM275.201 242.55H370.401C373.901 242.55 376.351 240.1 376.351 236.6V229.25C376.351 221.9 382.301 215.6 390.001 215.6H397.001C400.501 215.6 403.301 212.8 403.301 209.3V194.6C403.301 191.45 400.851 188.65 397.351 188.65H275.201C271.701 188.65 268.901 191.8 268.901 195.3V236.25C268.901 239.75 271.701 242.55 275.201 242.55Z" fill="url(#paint0_linear_34_1479)"/>
<defs>
<linearGradient id="paint0_linear_34_1479" x1="345" y1="-54.5" x2="345" y2="333.5" gradientUnits="userSpaceOnUse">
<stop/>
<stop offset="1" stop-color="#292929"/>
</linearGradient>
</defs>
</svg>
